# xmcd
#
# Track frame offsets:
# 150
# 20330
# 40510
# 60690
# 87582
# 114474
# 141366
# 163531
# 185696
# 207861
# 232669
# 257477
#
# Disc length: 3761 seconds
#
# Revision: 0
# Processed by: cddbd v1.5PL3 Copyright (c) Steve Scherf et al.
# Submitted via: Audion 3.0.2 (http://www.panic.com/audion/)
#
DISCID=990eaf0c
DTITLE=Joe Sample - Joe Sample
DYEAR=1900
DGENRE=
TTITLE0=2
TTITLE1=2
TTITLE2=2
TTITLE3=3
TTITLE4=3
TTITLE5=3
TTITLE6=5
TTITLE7=5
TTITLE8=5
TTITLE9=10
TTITLE10=10
TTITLE11=10
EXTD=
EXTT0=
EXTT1=
EXTT2=
EXTT3=
EXTT4=
EXTT5=
EXTT6=
EXTT7=
EXTT8=
EXTT9=
EXTT10=
EXTT11=
PLAYORDER=
